<svg width="18" height="18" viewBox="0 0 18 18" fill="none" xmlns="http://www.w3.org/2000/svg">
<path d="M8.99991 5.91181C8.5735 6.33822 7.88217 6.33822 7.45577 5.91181C7.02936 5.48541 7.02936 4.79408 7.45577 4.36767L10.5442 1.27921C12.2498 -0.426402 15.0152 -0.426402 16.7208 1.27921C18.4264 2.98482 18.4264 5.75016 16.7208 7.45577L13.6325 10.544C13.2061 10.9704 12.5148 10.9704 12.0884 10.544C11.662 10.1176 11.662 9.42631 12.0884 8.99991L15.1767 5.91163C16.0295 5.05882 16.0295 3.67615 15.1767 2.82335C14.3238 1.97054 12.9412 1.97054 12.0884 2.82335L8.99991 5.91181ZM9.00009 12.0882C9.42649 11.6618 10.1178 11.6618 10.5442 12.0882C10.9706 12.5146 10.9706 13.2059 10.5442 13.6323L7.45577 16.7208C5.75016 18.4264 2.98482 18.4264 1.27921 16.7208C-0.426402 15.0152 -0.426402 12.2498 1.27921 10.5442L4.36749 7.45595C4.79389 7.02955 5.48522 7.02955 5.91163 7.45595C6.33803 7.88236 6.33803 8.57369 5.91163 9.00009L2.82335 12.0884C1.97054 12.9412 1.97054 14.3238 2.82335 15.1767C3.67615 16.0295 5.05882 16.0295 5.91163 15.1767L9.00009 12.0882ZM12.0884 5.91163C12.5148 6.33803 12.5148 7.02936 12.0884 7.45577L7.45595 12.0882C7.02955 12.5146 6.33822 12.5146 5.91181 12.0882C5.48541 11.6618 5.48541 10.9704 5.91181 10.544L10.5442 5.91163C10.9706 5.48522 11.662 5.48522 12.0884 5.91163Z" fill="#51CCC5"/>
</svg>
